M48
; DRILL file {KiCad 9.0.0} date 2025-09-04T18:21:11+0100
; FORMAT={-:-/ absolute / inch / decimal}
; #@! TF.CreationDate,2025-09-04T18:21:11+01:00
; #@! TF.GenerationSoftware,Kicad,Pcbnew,9.0.0
; #@! TF.FileFunction,Plated,1,2,PTH
FMAT,2
INCH
; #@! TA.AperFunction,Plated,PTH,ViaDrill
T1C0.0118
; #@! TA.AperFunction,Plated,PTH,ComponentDrill
T2C0.0295
; #@! TA.AperFunction,Plated,PTH,ComponentDrill
T3C0.0315
; #@! TA.AperFunction,Plated,PTH,ComponentDrill
T4C0.0469
; #@! TA.AperFunction,Plated,PTH,ComponentDrill
T5C0.0512
%
G90
G05
T1
X1.6807Y-4.1185
X2.0081Y-5.0959
X2.0472Y-3.7008
X2.1326Y-4.0673
X2.1654Y-3.5827
X2.1654Y-4.1339
X2.2441Y-4.0905
X2.3031Y-4.6457
X2.5315Y-4.0728
X2.6575Y-3.5236
X2.6575Y-3.6417
X3.0906Y-3.4449
T2
X1.8988Y-3.5539
X1.9488Y-3.5039
X1.9988Y-3.5539
X2.6181Y-2.4394
X2.6181Y-2.5394
X2.6681Y-2.4894
X2.8043Y-4.7941
X2.8543Y-4.7441
X2.8543Y-4.8441
X3.2931Y-4.2232
X3.2965Y-3.9476
X3.3431Y-4.1732
X3.3465Y-3.8976
X3.3931Y-4.2232
X3.3965Y-3.9476
T3
X1.4142Y-2.4803
X1.4142Y-2.5984
X1.4142Y-2.7165
X1.4142Y-3.0906
X1.4248Y-2.8346
X1.4248Y-2.9331
X1.4323Y-3.2087
X1.4339Y-4.4882
X1.437Y-3.3402
X1.437Y-3.7402
X1.437Y-3.8583
X1.437Y-4.0551
X1.437Y-4.1732
X1.437Y-4.3701
X1.5488Y-3.7598
X1.5488Y-3.878
X1.5488Y-3.9961
X1.5488Y-4.1142
X1.5488Y-4.2323
X1.5748Y-3.6024
X1.6142Y-4.3701
X1.7248Y-2.8346
X1.7248Y-2.9331
X1.7323Y-3.2087
X1.7717Y-3.6024
X1.7882Y-5.0197
X1.8091Y-4.7441
X1.811Y-4.3701
X1.8142Y-2.4803
X1.8142Y-2.5984
X1.8142Y-2.7165
X1.8142Y-3.0906
X1.8339Y-4.4882
X1.8685Y-4.8858
X1.9063Y-1.8307
X1.9063Y-1.9488
X1.9063Y-2.0669
X1.9063Y-2.185
X1.9063Y-2.3031
X1.9063Y-2.4213
X1.9063Y-2.5394
X1.9063Y-2.6575
X1.9063Y-2.7756
X1.9094Y-3.3071
X1.9291Y-4.3504
X1.9291Y-4.5472
X1.9488Y-3.7598
X1.9488Y-3.878
X1.9488Y-3.9961
X1.9488Y-4.1142
X1.9488Y-4.2323
X1.9685Y-4.8858
X2.0059Y-4.7441
X2.0079Y-3.3071
X2.0472Y-3.0906
X2.0549Y-3.8173
X2.0549Y-3.9173
X2.0549Y-4.0173
X2.0549Y-4.1173
X2.0654Y-4.2913
X2.1Y-4.4291
X2.1Y-4.5472
X2.1Y-4.6654
X2.1004Y-4.7835
X2.1004Y-4.9016
X2.1161Y-3.6417
X2.126Y-3.5039
X2.1457Y-3.0906
X2.1654Y-4.2913
X2.1858Y-3.2972
X2.1882Y-5.0197
X2.2803Y-5.0197
X2.2835Y-4.2913
X2.2842Y-3.2972
X2.3063Y-1.8307
X2.3063Y-1.9488
X2.3063Y-2.0669
X2.3063Y-2.185
X2.3063Y-2.3031
X2.3063Y-2.4213
X2.3063Y-2.5394
X2.3063Y-2.6575
X2.3063Y-2.7756
X2.313Y-3.6417
X2.3228Y-3.5039
X2.3549Y-3.8173
X2.3549Y-3.9173
X2.3549Y-4.0173
X2.3549Y-4.1173
X2.415Y-2.9331
X2.415Y-3.0512
X2.415Y-3.1693
X2.415Y-3.2874
X2.415Y-3.4055
X2.415Y-3.5236
X2.4154Y-3.6417
X2.4486Y-3.8264
X2.4486Y-3.9264
X2.4486Y-4.0264
X2.4486Y-4.1264
X2.4683Y-1.8382
X2.4683Y-1.9382
X2.4683Y-2.0382
X2.4683Y-2.1382
X2.4803Y-4.2913
X2.5Y-4.4291
X2.5Y-4.5472
X2.5Y-4.6654
X2.5004Y-4.7835
X2.5004Y-4.9016
X2.5116Y-2.7362
X2.5197Y-2.3031
X2.5921Y-4.5866
X2.5984Y-4.2913
X2.5984Y-4.4488
X2.61Y-2.7362
X2.6181Y-4.7047
X2.6181Y-4.9016
X2.6803Y-5.0197
X2.7165Y-2.3031
X2.7486Y-3.8264
X2.7486Y-3.9264
X2.7486Y-4.0264
X2.7486Y-4.1264
X2.7683Y-1.8382
X2.7683Y-1.9382
X2.7683Y-2.0382
X2.7683Y-2.1382
X2.7756Y-5.0197
X2.7953Y-4.2913
X2.7953Y-4.4488
X2.815Y-2.9331
X2.815Y-3.0512
X2.815Y-3.1693
X2.815Y-3.2874
X2.815Y-3.4055
X2.815Y-3.5236
X2.8154Y-3.6417
X2.874Y-3.9173
X2.874Y-4.1142
X2.9134Y-1.8307
X2.9134Y-2.0276
X2.9134Y-2.1228
X2.9134Y-2.5228
X2.9134Y-4.2717
X2.9134Y-4.4685
X2.9331Y-2.9134
X2.9528Y-3.0346
X2.9528Y-3.2315
X2.9528Y-3.3374
X2.9528Y-3.6374
X2.9724Y-5.0197
X2.9921Y-4.5866
X3.0315Y-3.7795
X3.0315Y-4.1795
X3.0494Y-4.2913
X3.0906Y-3.2677
X3.0906Y-3.6677
X3.1055Y-4.4276
X3.1055Y-4.5276
X3.1055Y-4.6276
X3.1055Y-4.7276
X3.1299Y-2.9134
X3.1494Y-4.2913
X3.1496Y-3.7795
X3.1496Y-4.1795
X3.2283Y-3.4055
X3.2283Y-3.6024
X3.3858Y-3.3236
X3.3858Y-3.7236
X3.4055Y-4.4276
X3.4055Y-4.5276
X3.4055Y-4.6276
X3.4055Y-4.7276
T4
X1.4535Y-4.685
X1.511Y-1.9094
X1.5535Y-4.685
X1.611Y-1.9094
X1.6535Y-3.3465
X1.6535Y-3.4465
X1.6535Y-4.685
X1.711Y-1.9094
X3.1661Y-1.9094
X3.2661Y-1.9094
X3.3063Y-3.06
X3.3063Y-3.16
X3.3661Y-1.9094
T5
X3.2087Y-2.5197
X3.2087Y-2.7165
X3.4055Y-2.6181
M30
