%TF.GenerationSoftware,KiCad,Pcbnew,9.0.0*%
%TF.CreationDate,2025-09-04T18:21:01+01:00*%
%TF.ProjectId,BossCE2,426f7373-4345-4322-9e6b-696361645f70,V1.1*%
%TF.SameCoordinates,Original*%
%TF.FileFunction,Legend,Bot*%
%TF.FilePolarity,Positive*%
%FSLAX46Y46*%
G04 Gerber Fmt 4.6, Leading zero omitted, Abs format (unit mm)*
G04 Created by KiCad (PCBNEW 9.0.0) date 2025-09-04 18:21:01*
%MOMM*%
%LPD*%
G01*
G04 APERTURE LIST*
%ADD10C,0.100000*%
G04 APERTURE END LIST*
D10*
X41438972Y-120709800D02*
X41367544Y-120733609D01*
X41367544Y-120733609D02*
X41248496Y-120733609D01*
X41248496Y-120733609D02*
X41200877Y-120709800D01*
X41200877Y-120709800D02*
X41177068Y-120685990D01*
X41177068Y-120685990D02*
X41153258Y-120638371D01*
X41153258Y-120638371D02*
X41153258Y-120590752D01*
X41153258Y-120590752D02*
X41177068Y-120543133D01*
X41177068Y-120543133D02*
X41200877Y-120519323D01*
X41200877Y-120519323D02*
X41248496Y-120495514D01*
X41248496Y-120495514D02*
X41343734Y-120471704D01*
X41343734Y-120471704D02*
X41391353Y-120447895D01*
X41391353Y-120447895D02*
X41415163Y-120424085D01*
X41415163Y-120424085D02*
X41438972Y-120376466D01*
X41438972Y-120376466D02*
X41438972Y-120328847D01*
X41438972Y-120328847D02*
X41415163Y-120281228D01*
X41415163Y-120281228D02*
X41391353Y-120257419D01*
X41391353Y-120257419D02*
X41343734Y-120233609D01*
X41343734Y-120233609D02*
X41224687Y-120233609D01*
X41224687Y-120233609D02*
X41153258Y-120257419D01*
X40938973Y-120733609D02*
X40938973Y-120233609D01*
X40724687Y-120733609D02*
X40724687Y-120471704D01*
X40724687Y-120471704D02*
X40748497Y-120424085D01*
X40748497Y-120424085D02*
X40796116Y-120400276D01*
X40796116Y-120400276D02*
X40867544Y-120400276D01*
X40867544Y-120400276D02*
X40915163Y-120424085D01*
X40915163Y-120424085D02*
X40938973Y-120447895D01*
X40415163Y-120733609D02*
X40462782Y-120709800D01*
X40462782Y-120709800D02*
X40486592Y-120685990D01*
X40486592Y-120685990D02*
X40510401Y-120638371D01*
X40510401Y-120638371D02*
X40510401Y-120495514D01*
X40510401Y-120495514D02*
X40486592Y-120447895D01*
X40486592Y-120447895D02*
X40462782Y-120424085D01*
X40462782Y-120424085D02*
X40415163Y-120400276D01*
X40415163Y-120400276D02*
X40343735Y-120400276D01*
X40343735Y-120400276D02*
X40296116Y-120424085D01*
X40296116Y-120424085D02*
X40272306Y-120447895D01*
X40272306Y-120447895D02*
X40248497Y-120495514D01*
X40248497Y-120495514D02*
X40248497Y-120638371D01*
X40248497Y-120638371D02*
X40272306Y-120685990D01*
X40272306Y-120685990D02*
X40296116Y-120709800D01*
X40296116Y-120709800D02*
X40343735Y-120733609D01*
X40343735Y-120733609D02*
X40415163Y-120733609D01*
X40034211Y-120733609D02*
X40034211Y-120400276D01*
X40034211Y-120495514D02*
X40010401Y-120447895D01*
X40010401Y-120447895D02*
X39986592Y-120424085D01*
X39986592Y-120424085D02*
X39938973Y-120400276D01*
X39938973Y-120400276D02*
X39891354Y-120400276D01*
X39796115Y-120400276D02*
X39605639Y-120400276D01*
X39724687Y-120233609D02*
X39724687Y-120662180D01*
X39724687Y-120662180D02*
X39700877Y-120709800D01*
X39700877Y-120709800D02*
X39653258Y-120733609D01*
X39653258Y-120733609D02*
X39605639Y-120733609D01*
M02*
