M48
; DRILL file {KiCad 9.0.0} date 2025-09-04T18:19:16+0100
; FORMAT={-:-/ absolute / inch / decimal}
; #@! TF.CreationDate,2025-09-04T18:19:16+01:00
; #@! TF.GenerationSoftware,Kicad,Pcbnew,9.0.0
; #@! TF.FileFunction,Plated,1,2,PTH
FMAT,2
INCH
; #@! TA.AperFunction,Plated,PTH,ComponentDrill
T1C0.0295
; #@! TA.AperFunction,Plated,PTH,ComponentDrill
T2C0.0315
; #@! TA.AperFunction,Plated,PTH,ComponentDrill
T3C0.0469
; #@! TA.AperFunction,Plated,PTH,ComponentDrill
T4C0.0512
%
G90
G05
T1
X2.8346Y-3.2677
X2.8346Y-3.622
X2.8846Y-3.3177
X2.8846Y-3.672
X2.9346Y-3.2677
X2.9346Y-3.622
X3.3431Y-2.3516
X3.3465Y-4.3307
X3.3931Y-2.4016
X3.3965Y-4.3807
X3.4431Y-2.3516
X3.4465Y-4.3307
X3.887Y-3.2283
X3.937Y-3.2783
X3.987Y-3.2283
T2
X2.1063Y-4.8425
X2.1228Y-2.4673
X2.1228Y-2.5866
X2.1228Y-2.9921
X2.1228Y-3.1102
X2.1228Y-3.2283
X2.1228Y-3.3465
X2.1228Y-3.937
X2.1228Y-4.0551
X2.1228Y-4.6457
X2.1803Y-3.5039
X2.1803Y-3.6039
X2.1803Y-3.7039
X2.1803Y-3.8039
X2.2047Y-4.8425
X2.2835Y-2.7953
X2.3819Y-2.7953
X2.4803Y-3.5039
X2.4803Y-3.6039
X2.4803Y-3.7039
X2.4803Y-3.8039
X2.5228Y-2.4673
X2.5228Y-2.5866
X2.5228Y-2.9921
X2.5228Y-3.1102
X2.5228Y-3.2283
X2.5228Y-3.3465
X2.5228Y-3.937
X2.5228Y-4.0551
X2.5228Y-4.6457
X2.674Y-2.7165
X2.674Y-2.8346
X2.674Y-2.9528
X2.674Y-3.0709
X2.674Y-3.937
X2.674Y-4.4488
X2.674Y-4.5669
X2.674Y-4.685
X2.6969Y-4.1339
X2.724Y-2.4622
X2.724Y-2.563
X2.7346Y-4.8031
X2.7709Y-5.0748
X2.7756Y-3.4646
X2.7756Y-4.3307
X2.7953Y-3.8189
X2.7953Y-4.1339
X2.8465Y-4.9409
X2.9724Y-3.4646
X2.9724Y-4.1339
X2.9724Y-4.3307
X2.9921Y-3.8189
X3.024Y-2.4622
X3.024Y-2.563
X3.0433Y-4.9409
X3.0709Y-4.1339
X3.0709Y-5.0748
X3.074Y-2.7165
X3.074Y-2.8346
X3.074Y-2.9528
X3.074Y-3.0709
X3.074Y-3.937
X3.074Y-4.4488
X3.074Y-4.5669
X3.074Y-4.685
X3.1346Y-4.8031
X3.1858Y-3.2283
X3.1858Y-3.3465
X3.1858Y-3.4646
X3.1858Y-3.5827
X3.1858Y-5.0394
X3.2283Y-3.7402
X3.2283Y-3.8402
X3.2283Y-3.9402
X3.2283Y-4.0402
X3.2433Y-2.7953
X3.2433Y-2.8953
X3.2433Y-2.9953
X3.2433Y-3.0953
X3.2874Y-4.1732
X3.2947Y-2.5591
X3.2947Y-2.6772
X3.3071Y-4.5276
X3.3071Y-4.9276
X3.4646Y-4.5244
X3.4646Y-4.9244
X3.4843Y-4.1732
X3.4915Y-2.5591
X3.4915Y-2.6772
X3.5283Y-3.7402
X3.5283Y-3.8402
X3.5283Y-3.9402
X3.5283Y-4.0402
X3.5433Y-2.7953
X3.5433Y-2.8953
X3.5433Y-2.9953
X3.5433Y-3.0953
X3.5858Y-3.2283
X3.5858Y-3.3465
X3.5858Y-3.4646
X3.5858Y-3.5827
X3.5858Y-5.0394
X3.737Y-2.2835
X3.737Y-2.9528
X3.737Y-3.5433
X3.737Y-3.6614
X3.737Y-4.0157
X3.737Y-4.1339
X3.737Y-4.3701
X3.787Y-2.4016
X3.7872Y-2.5197
X3.7872Y-2.6197
X3.7872Y-2.7197
X3.7872Y-2.8197
X3.8386Y-3.0709
X3.8386Y-3.4252
X3.8386Y-3.7795
X3.8386Y-3.8976
X3.8386Y-4.252
X4.0354Y-3.0709
X4.0354Y-3.4252
X4.0354Y-3.7795
X4.0354Y-3.8976
X4.0354Y-4.252
X4.087Y-2.4016
X4.0872Y-2.5197
X4.0872Y-2.6197
X4.0872Y-2.7197
X4.0872Y-2.8197
X4.137Y-2.2835
X4.137Y-2.9528
X4.137Y-3.5433
X4.137Y-3.6614
X4.137Y-4.0157
X4.137Y-4.1339
X4.137Y-4.3701
X4.2843Y-4.2598
X4.2882Y-2.2012
X4.2882Y-2.3228
X4.2882Y-2.5591
X4.2882Y-2.6772
X4.2882Y-3.1496
X4.2882Y-3.3858
X4.2882Y-3.5039
X4.2882Y-3.7402
X4.2882Y-4.0157
X4.2882Y-4.4094
X4.3898Y-2.4409
X4.3898Y-2.7953
X4.3898Y-2.9134
X4.3898Y-3.0315
X4.3898Y-3.2677
X4.3898Y-3.622
X4.3898Y-3.8583
X4.3898Y-4.1378
X4.5866Y-2.4409
X4.5866Y-2.7953
X4.5866Y-2.9134
X4.5866Y-3.0315
X4.5866Y-3.2677
X4.5866Y-3.622
X4.5866Y-3.8583
X4.5866Y-4.1378
X4.6843Y-4.2598
X4.6882Y-2.2012
X4.6882Y-2.3228
X4.6882Y-2.5591
X4.6882Y-2.6772
X4.6882Y-3.1496
X4.6882Y-3.3858
X4.6882Y-3.5039
X4.6882Y-3.7402
X4.6882Y-4.0157
X4.6882Y-4.4094
T3
X2.2319Y-2.2047
X2.3319Y-2.2047
X2.3591Y-4.9213
X2.4319Y-2.2047
X2.4591Y-4.9213
X2.5591Y-4.9213
X2.7921Y-2.2047
X2.8921Y-2.2047
X2.9921Y-2.2047
X3.6941Y-4.6929
X3.7941Y-4.6929
X4.5496Y-4.6929
X4.6496Y-4.6929
T4
X2.2244Y-4.4488
X2.3228Y-4.252
X2.4213Y-4.4488
M30
